<svg width="30" height="30" viewBox="0 0 30 30" fill="none" xmlns="http://www.w3.org/2000/svg">
<mask id="path-1-inside-1_315_782" fill="white">
<path d="M10 12.5V8.94748C10 6.79364 11.6 5.5 13.5 5.5H16.5C18.5 5.5 20 6.79364 20 8.94748V12.5"/>
</mask>
<path d="M11 12.5V8.94748H9V12.5H11ZM11 8.94748C11 8.1334 11.2951 7.54191 11.7184 7.14846C12.1515 6.74579 12.7749 6.5 13.5 6.5V4.5C12.3251 4.5 11.1985 4.90103 10.3566 5.68364C9.50486 6.47547 9 7.60772 9 8.94748H11ZM13.5 6.5H16.5V4.5H13.5V6.5ZM16.5 6.5C17.2847 6.5 17.9003 6.7514 18.3119 7.14169C18.7162 7.52505 19 8.11379 19 8.94748H21C21 7.62733 20.5338 6.49233 19.6881 5.69041C18.8497 4.89542 17.7153 4.5 16.5 4.5V6.5ZM19 8.94748V12.5H21V8.94748H19Z" fill="#0E0E0E" mask="url(#path-1-inside-1_315_782)"/>
<path d="M5.5 23.2001V11H24.5002V23.2001C24.5002 25.1568 23.317 26.4501 21.9699 26.4501H8.03033C6.69088 26.4501 5.5 25.0649 5.5 23.2001Z" stroke="#0E0E0E"/>
</svg>
