<svg width="14" height="14" viewBox="0 0 14 14" fill="none" xmlns="http://www.w3.org/2000/svg">
<g clip-path="url(#clip0_315_877)">
<path d="M13.0239 0.538646C12.9118 0.426528 12.8097 0.414606 12.6993 0.469773C12.6924 0.473247 12.6853 0.476537 12.6782 0.479637L1.07635 5.52719C0.983684 5.57501 0.938035 5.62156 0.914646 5.65665C0.892308 5.69014 0.875 5.73562 0.875 5.80989C0.875 5.95607 0.940205 6.08954 1.01416 6.16401L5.82714 7.42278C5.98017 7.4628 6.09969 7.58232 6.13971 7.73535L7.40057 12.5563C7.47607 12.6462 7.56472 12.6875 7.6772 12.6875C7.83399 12.6875 7.96776 12.613 8.03568 12.4853L13.0828 0.884301C13.086 0.87717 13.0892 0.87013 13.0927 0.863179C13.1479 0.752845 13.1359 0.650764 13.0239 0.538646ZM13.0239 0.538646L13.3318 0.230713" stroke="#999999" stroke-width="0.8" stroke-linejoin="round"/>
</g>
<defs>
<clipPath id="clip0_315_877">
<rect width="14" height="13.125" fill="white"/>
</clipPath>
</defs>
</svg>
